<?xml version="1.0" encoding="UTF-8" standalone="no"?>
<!DOCTYPE svg PUBLIC "-//W3C//DTD SVG 1.1//EN" "http://www.w3.org/Graphics/SVG/1.1/DTD/svg11.dtd">
<svg width="100%" height="100%" viewBox="0 0 5000 1100" version="1.1" xmlns="http://www.w3.org/2000/svg" xmlns:xlink="http://www.w3.org/1999/xlink" xml:space="preserve" xmlns:serif="http://www.serif.com/" style="fill-rule:evenodd;clip-rule:evenodd;">
    <g id="Layer-1" serif:id="Layer 1" transform="matrix(1,0,0,1,-10567.5,-6898.8)">
        <g id="path841" transform="matrix(1.5763,0,0,1.5763,-8254.09,-4283.32)">
            <path d="M13323.8,7648.58C13303.5,7646.29 13266,7636.07 13248.3,7627.98C13213.1,7611.93 13184,7586.89 13172.6,7562.86C13169.2,7555.84 13165.8,7546.05 13164.8,7540.97C13163.2,7535.48 13163.1,7497.7 13163.1,7448.78L13163.1,7365.83L13243.7,7365.83L13243.7,7517.63L13247.8,7526.17C13262.8,7557.5 13319.1,7579.17 13370.7,7573.34C13392.2,7570.9 13404.7,7567.54 13421.3,7559.76C13440.3,7550.91 13453.2,7539.8 13459.3,7527.47L13464.2,7517.55L13464.2,7365.69L13543.8,7365.69L13543.8,7451.45C13543.8,7535.14 13543.7,7537.51 13540,7549.23C13526.1,7593.05 13475.1,7628.45 13403.1,7644.25C13380.2,7649.28 13349,7650.51 13322.8,7647.61L13323.8,7648.58ZM12716.5,7640.8C12714.7,7638.82 12715,7451.74 12716.5,7432.43C12720.8,7390.91 12731.2,7358.2 12747.3,7335.28C12758.9,7318.75 12775.9,7303.17 12788.8,7297.19C12811.6,7286.51 12806.7,7286.81 12960.4,7286.81L13100.7,7286.81L13100.7,7365.64L12842.5,7365.64L12834,7369.92C12817.8,7377.85 12805.1,7394.91 12799.4,7416.46C12796.8,7426.07 12796.3,7440.29 12795.8,7534.23L12795.8,7641L12756.8,7641C12735.3,7641 12717.2,7641 12716.6,7639.47L12716.5,7640.8ZM14078.1,7639.27L14078.1,7366.12L14157.9,7366.12L14157.9,7642.34L14118.4,7642.34C14088.3,7642.34 14078.7,7642.34 14078,7640.2L14078.1,7639.27ZM14727.8,7551.79C14727.8,7463.75 14727.8,7461.99 14732.2,7451.87C14740.8,7429.23 14765,7404.37 14794.6,7387.98C14813.9,7377.3 14850.4,7364.88 14874.1,7360.94C14896.6,7357.13 14936.9,7357.28 14960.7,7361C14983,7364.51 15015,7375.04 15035.1,7385.4C15073.1,7405.01 15100.3,7435.12 15106.3,7464.4C15107.9,7470.35 15108.2,7502.94 15108.2,7557.45L15108.2,7641.41L15027.6,7641.41L15027.6,7567.97C15027.6,7481.06 15027.7,7481.72 15012.3,7466.37C14989.3,7443.39 14940.7,7429.06 14901.5,7433.7C14858.7,7438.73 14823.1,7457.01 14812,7479.63L14807.1,7489.55L14807.1,7641.35L14728.2,7641.35L14727.8,7551.79ZM13614.2,7603.84L13614.2,7569.45L13918.9,7569.45L13925.2,7564.72C13936,7556.48 13935,7547.06 13922.4,7539.42C13917.1,7536.21 13913,7536.06 13811.2,7536.06C13744.9,7536.06 13700.4,7534.53 13692.1,7534.23C13639.2,7526.9 13604.1,7484.67 13612.3,7438.46C13618.6,7403.61 13644.6,7379.26 13685.4,7370.13C13695.6,7367.84 13719.6,7367.38 13851.4,7366.77L14005.4,7366.77L14005.4,7436.43L13850.8,7437.96C13687.2,7439.48 13694.2,7437.96 13687.6,7446.35C13684.6,7450.01 13685,7457.49 13689.1,7460.85C13698,7468.93 13698.3,7468.93 13812.5,7468.93C13945.5,7468.97 13946.9,7468.93 13977.4,7490.75C13998.6,7505.86 14010.7,7529.07 14010.6,7554.49C14010.6,7592.41 13982.9,7623.39 13938.5,7635.75C13925.6,7639.26 13922,7639.41 13770.6,7640.02L13615.7,7640.02L13614.2,7603.84ZM14334.6,7636.92C14303.5,7631.89 14287.5,7624.72 14270.1,7607.64C14250.7,7588.67 14238.9,7568.27 14231.4,7541.07C14226.1,7521.59 14226.1,7482.1 14231.4,7462.17C14241.3,7425.17 14266.9,7391.49 14296,7377.23C14319,7365.93 14316.7,7366.09 14443.5,7366.09C14570.5,7366.09 14567.9,7366.09 14591.3,7377.23C14603.9,7383.33 14623.5,7401.08 14634,7415.85C14664.4,7458.31 14668.4,7521.3 14644,7570.79C14633.1,7592.73 14611.1,7616.22 14593,7625.02C14568,7637.23 14572.4,7636.77 14449.6,7637.23L14334.7,7637.23L14334.6,7636.92ZM14556.1,7554.37C14558.9,7552.69 14563.7,7547.5 14567.1,7542.77C14586.4,7514.57 14579,7461.26 14554,7448.33C14546.8,7444.52 14340.2,7444.67 14333,7448.38C14315.8,7457.23 14305.4,7485.81 14309.2,7513.58C14311.1,7527.16 14313.8,7534.67 14320.5,7544.35C14330.1,7558.23 14322,7557.32 14443.2,7557.32C14542.6,7557.32 14551.4,7557.32 14556.1,7554.26L14556.1,7554.37ZM12834.1,7488.33L12834.1,7448.44L13100,7448.44L13100,7528.2L12832.3,7528.2L12834.1,7488.33ZM14103.3,7321.48C14069.8,7312.17 14058.1,7278.91 14080.4,7256.34C14107.7,7228.63 14163.2,7243.07 14166.1,7278.53C14167.7,7290.12 14164.6,7297.68 14157,7306.59C14145.2,7320.32 14122.1,7326.72 14103.3,7321.54L14103.3,7321.48Z" style="fill:white;fill-rule:nonzero;stroke:white;stroke-width:1.72px;"/>
        </g>
        <g id="g1125" transform="matrix(0.70167,0,0,0.70167,2838.99,2222.63)">
            <g id="circle1752-0-3-9-9" transform="matrix(0.294222,-0.955737,-0.955737,-0.294222,0,0)">
                <circle cx="-3741.09" cy="-13601.9" r="636.15" style="fill:none;stroke:white;stroke-width:30px;"/>
            </g>
            <g id="circle1756-9-6-2-4" transform="matrix(0.294222,-0.955737,-0.955737,-0.294222,0,0)">
                <circle cx="-3793.03" cy="-13444.7" r="636.15" style="fill:none;stroke:white;stroke-width:30px;"/>
            </g>
            <g id="circle1760-3-7-0-7" transform="matrix(-0.8128,-0.582543,-0.582543,0.8128,0,0)">
                <circle cx="-13813.3" cy="-773.182" r="636.15" style="fill:none;stroke:white;stroke-width:30px;"/>
            </g>
            <g id="circle1764-6-5-2-8" transform="matrix(-0.786256,0.617901,0.617901,0.786256,0,0)">
                <circle cx="-4764.99" cy="13054" r="636.15" style="fill:none;stroke:white;stroke-width:30px;"/>
            </g>
            <g id="circle1768-0-3-3-4" transform="matrix(0.323122,0.946357,0.946357,-0.323122,0,0)">
                <circle cx="10882.5" cy="8911.95" r="636.15" style="fill:none;stroke:white;stroke-width:30px;"/>
            </g>
        </g>
    </g>
</svg>
